<svg width="1280" height="225" viewBox="0 0 1280 225" fill="none" xmlns="http://www.w3.org/2000/svg">
<g clip-path="url(#clip0_3030_9144)">
<path d="M0 20C0 8.9543 8.95431 0 20 0H1260C1271.05 0 1280 8.95431 1280 20V205C1280 216.046 1271.05 225 1260 225H20C8.95431 225 0 216.046 0 205V20Z" fill="#0F1832"/>
<g filter="url(#filter0_f_3030_9144)">
<path d="M1062.46 53.6321C670.717 -179.405 333.235 -43.4902 213.463 53.5969C183.817 175.462 464.053 266.45 607.877 296.712C922.634 312.784 1454.21 286.669 1062.46 53.6321Z" fill="#0231FF" fill-opacity="0.7"/>
</g>
<g filter="url(#filter1_f_3030_9144)">
<path d="M922.306 350.119C777.53 493.098 831.106 686.374 875.992 765.14C875.992 894.685 1324.56 863.498 1504.67 765.14C1684.78 666.783 1609.31 521.645 1615.31 350.119C1620.12 212.898 1423.48 168.198 1324.56 163C1250.8 165.799 1067.08 207.141 922.306 350.119Z" fill="#6C01DB"/>
</g>
<path d="M-863.165 -544.181C-859.655 -577.9 -823.242 -597.454 -793.194 -581.753L1716.64 729.65C1750.79 747.489 1751.06 796.256 1717.12 814.481L-1085.92 2319.65C-1119.86 2337.88 -1160.36 2310.71 -1156.37 2272.39L-863.165 -544.181Z" fill="#6F5AC8" fill-opacity="0.1"/>
<path d="M-863.165 -624.181C-859.655 -657.9 -823.242 -677.454 -793.194 -661.753L1716.64 649.65C1750.79 667.489 1751.06 716.256 1717.12 734.481L-1085.92 2239.65C-1119.86 2257.88 -1160.36 2230.71 -1156.37 2192.39L-863.165 -624.181Z" fill="#6F5AC8" fill-opacity="0.1"/>
<path d="M-863.165 -700.181C-859.655 -733.9 -823.242 -753.454 -793.194 -737.753L1716.64 573.65C1750.79 591.489 1751.06 640.256 1717.12 658.481L-1085.92 2163.65C-1119.86 2181.88 -1160.36 2154.71 -1156.37 2116.39L-863.165 -700.181Z" fill="#6F5AC8" fill-opacity="0.1"/>
<path d="M-863.165 -775.181C-859.655 -808.9 -823.242 -828.454 -793.194 -812.753L1716.64 498.65C1750.79 516.489 1751.06 565.256 1717.12 583.481L-1085.92 2088.65C-1119.86 2106.88 -1160.36 2079.71 -1156.37 2041.39L-863.165 -775.181Z" fill="#6F5AC8" fill-opacity="0.1"/>
<path d="M-863.165 -850.181C-859.655 -883.9 -823.242 -903.454 -793.194 -887.753L1716.64 423.65C1750.79 441.489 1751.06 490.256 1717.12 508.481L-1085.92 2013.65C-1119.86 2031.88 -1160.36 2004.71 -1156.37 1966.39L-863.165 -850.181Z" fill="#6F5AC8" fill-opacity="0.1"/>
<path d="M-724.802 -850.181C-721.291 -883.9 -684.878 -903.454 -654.831 -887.753L1855.01 423.65C1889.15 441.489 1889.42 490.256 1855.49 508.481L-947.554 2013.65C-981.493 2031.88 -1021.99 2004.71 -1018 1966.39L-724.802 -850.181Z" fill="#6F5AC8" fill-opacity="0.1"/>
<g filter="url(#filter2_f_3030_9144)">
<circle cx="-183" cy="-183" r="367" fill="#031150"/>
</g>
<g clip-path="url(#clip1_3030_9144)">
<path d="M48 57C48 50.3726 53.3726 45 60 45H116C122.627 45 128 50.3726 128 57V113C128 119.627 122.627 125 116 125H60C53.3726 125 48 119.627 48 113V57Z" fill="white"/>
<g clip-path="url(#clip2_3030_9144)">
<rect width="80" height="80" transform="translate(48 45)" fill="#512BD4"/>
<g clip-path="url(#clip3_3030_9144)">
<path d="M128 45H48V125H128V45Z" fill="#512BD4"/>
<path d="M62.259 96.11C61.6934 96.11 61.2126 95.9216 60.8166 95.5446C60.4206 95.1579 60.2227 94.6988 60.2227 94.1672C60.2227 93.6258 60.4206 93.162 60.8166 92.7753C61.2126 92.3886 61.6934 92.1953 62.259 92.1953C62.8341 92.1953 63.3196 92.3886 63.7156 92.7753C64.121 93.162 64.3237 93.6258 64.3237 94.1672C64.3237 94.6988 64.121 95.1579 63.7156 95.5446C63.3196 95.9216 62.8341 96.11 62.259 96.11Z" fill="white"/>
<path d="M84.8719 95.7921H81.1951L71.5082 80.5098C71.2632 80.1232 71.0603 79.7219 70.9002 79.3063H70.8153C70.8907 79.7511 70.9284 80.7032 70.9284 82.1626V95.7921H67.6758V75H71.593L80.9547 89.9198C81.3507 90.5386 81.6053 90.9639 81.7184 91.1958H81.7749C81.6807 90.6449 81.6335 89.7121 81.6335 88.3974V75H84.8719V95.7921Z" fill="white"/>
<path d="M100.71 95.7921H89.3262V75H100.258V77.9289H92.692V83.8156H99.6637V86.73H92.692V92.8777H100.71V95.7921Z" fill="white"/>
<path d="M116.889 77.9289H111.063V95.7921H107.697V77.9289H101.885V75H116.889V77.9289Z" fill="white"/>
</g>
</g>
</g>
<path d="M50.8764 147.818H55.6705L64.0057 168.17H64.3125L72.6477 147.818H77.4418V174H73.6832V155.054H73.4403L65.7188 173.962H62.5994L54.8778 155.041H54.6349V174H50.8764V147.818ZM91.1495 174.396C89.3086 174.396 87.7021 173.974 86.3299 173.131C84.9577 172.287 83.8924 171.107 83.1339 169.589C82.3754 168.072 81.9961 166.3 81.9961 164.271C81.9961 162.234 82.3754 160.453 83.1339 158.928C83.8924 157.402 84.9577 156.217 86.3299 155.374C87.7021 154.53 89.3086 154.108 91.1495 154.108C92.9904 154.108 94.5969 154.53 95.9691 155.374C97.3413 156.217 98.4066 157.402 99.1651 158.928C99.9237 160.453 100.303 162.234 100.303 164.271C100.303 166.3 99.9237 168.072 99.1651 169.589C98.4066 171.107 97.3413 172.287 95.9691 173.131C94.5969 173.974 92.9904 174.396 91.1495 174.396ZM91.1623 171.188C92.3555 171.188 93.3441 170.872 94.1282 170.241C94.9123 169.611 95.4918 168.771 95.8668 167.723C96.2504 166.675 96.4421 165.52 96.4421 164.259C96.4421 163.006 96.2504 161.855 95.8668 160.807C95.4918 159.75 94.9123 158.902 94.1282 158.263C93.3441 157.624 92.3555 157.304 91.1623 157.304C89.9606 157.304 88.9634 157.624 88.1708 158.263C87.3867 158.902 86.8029 159.75 86.4194 160.807C86.0444 161.855 85.8569 163.006 85.8569 164.259C85.8569 165.52 86.0444 166.675 86.4194 167.723C86.8029 168.771 87.3867 169.611 88.1708 170.241C88.9634 170.872 89.9606 171.188 91.1623 171.188ZM108.392 162.341V174H104.57V154.364H108.239V157.56H108.482C108.933 156.52 109.641 155.685 110.604 155.054C111.575 154.423 112.798 154.108 114.273 154.108C115.611 154.108 116.783 154.389 117.788 154.952C118.794 155.506 119.574 156.332 120.128 157.432C120.682 158.531 120.959 159.891 120.959 161.51V174H117.136V161.97C117.136 160.547 116.766 159.435 116.024 158.634C115.283 157.824 114.264 157.419 112.969 157.419C112.082 157.419 111.294 157.611 110.604 157.994C109.922 158.378 109.381 158.94 108.98 159.682C108.588 160.415 108.392 161.301 108.392 162.341ZM134.357 174.396C132.516 174.396 130.909 173.974 129.537 173.131C128.165 172.287 127.099 171.107 126.341 169.589C125.582 168.072 125.203 166.3 125.203 164.271C125.203 162.234 125.582 160.453 126.341 158.928C127.099 157.402 128.165 156.217 129.537 155.374C130.909 154.53 132.516 154.108 134.357 154.108C136.197 154.108 137.804 154.53 139.176 155.374C140.548 156.217 141.614 157.402 142.372 158.928C143.131 160.453 143.51 162.234 143.51 164.271C143.51 166.3 143.131 168.072 142.372 169.589C141.614 171.107 140.548 172.287 139.176 173.131C137.804 173.974 136.197 174.396 134.357 174.396ZM134.369 171.188C135.563 171.188 136.551 170.872 137.335 170.241C138.119 169.611 138.699 168.771 139.074 167.723C139.457 166.675 139.649 165.52 139.649 164.259C139.649 163.006 139.457 161.855 139.074 160.807C138.699 159.75 138.119 158.902 137.335 158.263C136.551 157.624 135.563 157.304 134.369 157.304C133.168 157.304 132.17 157.624 131.378 158.263C130.594 158.902 130.01 159.75 129.626 160.807C129.251 161.855 129.064 163.006 129.064 164.259C129.064 165.52 129.251 166.675 129.626 167.723C130.01 168.771 130.594 169.611 131.378 170.241C132.17 170.872 133.168 171.188 134.369 171.188ZM169.829 156.332H165.841C165.687 155.48 165.402 154.73 164.984 154.082C164.566 153.435 164.055 152.885 163.45 152.433C162.845 151.982 162.167 151.641 161.417 151.411C160.676 151.18 159.887 151.065 159.052 151.065C157.544 151.065 156.193 151.445 155 152.203C153.815 152.962 152.877 154.074 152.187 155.54C151.505 157.006 151.164 158.795 151.164 160.909C151.164 163.04 151.505 164.838 152.187 166.304C152.877 167.77 153.819 168.878 155.012 169.628C156.206 170.378 157.548 170.753 159.039 170.753C159.866 170.753 160.65 170.642 161.392 170.42C162.142 170.19 162.819 169.854 163.424 169.411C164.029 168.967 164.541 168.426 164.958 167.787C165.385 167.139 165.679 166.398 165.841 165.562L169.829 165.575C169.616 166.862 169.203 168.047 168.589 169.129C167.984 170.203 167.204 171.132 166.25 171.916C165.304 172.692 164.221 173.293 163.002 173.719C161.784 174.145 160.454 174.358 159.014 174.358C156.747 174.358 154.727 173.821 152.954 172.747C151.181 171.665 149.784 170.118 148.761 168.107C147.747 166.095 147.24 163.696 147.24 160.909C147.24 158.114 147.751 155.714 148.774 153.712C149.797 151.7 151.194 150.158 152.967 149.084C154.74 148.001 156.755 147.46 159.014 147.46C160.403 147.46 161.699 147.661 162.9 148.061C164.11 148.453 165.197 149.033 166.16 149.8C167.123 150.558 167.92 151.487 168.551 152.587C169.181 153.678 169.608 154.926 169.829 156.332ZM178.072 147.818V174H174.249V147.818H178.072ZM191.485 174.396C189.645 174.396 188.038 173.974 186.666 173.131C185.294 172.287 184.228 171.107 183.47 169.589C182.711 168.072 182.332 166.3 182.332 164.271C182.332 162.234 182.711 160.453 183.47 158.928C184.228 157.402 185.294 156.217 186.666 155.374C188.038 154.53 189.645 154.108 191.485 154.108C193.326 154.108 194.933 154.53 196.305 155.374C197.677 156.217 198.743 157.402 199.501 158.928C200.26 160.453 200.639 162.234 200.639 164.271C200.639 166.3 200.26 168.072 199.501 169.589C198.743 171.107 197.677 172.287 196.305 173.131C194.933 173.974 193.326 174.396 191.485 174.396ZM191.498 171.188C192.691 171.188 193.68 170.872 194.464 170.241C195.248 169.611 195.828 168.771 196.203 167.723C196.586 166.675 196.778 165.52 196.778 164.259C196.778 163.006 196.586 161.855 196.203 160.807C195.828 159.75 195.248 158.902 194.464 158.263C193.68 157.624 192.691 157.304 191.498 157.304C190.297 157.304 189.299 157.624 188.507 158.263C187.723 158.902 187.139 159.75 186.755 160.807C186.38 161.855 186.193 163.006 186.193 164.259C186.193 165.52 186.38 166.675 186.755 167.723C187.139 168.771 187.723 169.611 188.507 170.241C189.299 170.872 190.297 171.188 191.498 171.188ZM217.344 165.857V154.364H221.18V174H217.421V170.599H217.217C216.765 171.648 216.04 172.521 215.043 173.22C214.055 173.911 212.823 174.256 211.349 174.256C210.087 174.256 208.971 173.979 207.999 173.425C207.036 172.862 206.278 172.031 205.724 170.932C205.178 169.832 204.906 168.473 204.906 166.854V154.364H208.728V166.393C208.728 167.732 209.099 168.797 209.84 169.589C210.582 170.382 211.545 170.778 212.729 170.778C213.445 170.778 214.157 170.599 214.864 170.241C215.58 169.884 216.173 169.342 216.641 168.618C217.119 167.893 217.353 166.973 217.344 165.857ZM233.667 174.384C232.081 174.384 230.667 173.979 229.422 173.169C228.186 172.351 227.215 171.187 226.507 169.679C225.809 168.162 225.459 166.342 225.459 164.22C225.459 162.098 225.813 160.283 226.52 158.774C227.236 157.266 228.216 156.111 229.461 155.31C230.705 154.509 232.115 154.108 233.692 154.108C234.911 154.108 235.891 154.312 236.632 154.722C237.382 155.122 237.962 155.591 238.371 156.128C238.789 156.665 239.113 157.138 239.343 157.547H239.573V147.818H243.395V174H239.662V170.945H239.343C239.113 171.362 238.78 171.839 238.346 172.376C237.919 172.913 237.331 173.382 236.581 173.783C235.831 174.183 234.86 174.384 233.667 174.384ZM234.51 171.124C235.61 171.124 236.539 170.834 237.297 170.254C238.064 169.666 238.644 168.852 239.036 167.812C239.436 166.773 239.637 165.562 239.637 164.182C239.637 162.818 239.441 161.625 239.049 160.602C238.657 159.58 238.081 158.783 237.323 158.212C236.564 157.641 235.627 157.355 234.51 157.355C233.36 157.355 232.401 157.653 231.634 158.25C230.867 158.847 230.287 159.661 229.895 160.692C229.512 161.723 229.32 162.886 229.32 164.182C229.32 165.494 229.516 166.675 229.908 167.723C230.3 168.771 230.88 169.602 231.647 170.216C232.422 170.821 233.377 171.124 234.51 171.124ZM280.431 156.332H276.442C276.289 155.48 276.003 154.73 275.586 154.082C275.168 153.435 274.657 152.885 274.051 152.433C273.446 151.982 272.769 151.641 272.019 151.411C271.277 151.18 270.489 151.065 269.654 151.065C268.145 151.065 266.794 151.445 265.601 152.203C264.417 152.962 263.479 154.074 262.789 155.54C262.107 157.006 261.766 158.795 261.766 160.909C261.766 163.04 262.107 164.838 262.789 166.304C263.479 167.77 264.421 168.878 265.614 169.628C266.807 170.378 268.15 170.753 269.641 170.753C270.468 170.753 271.252 170.642 271.993 170.42C272.743 170.19 273.421 169.854 274.026 169.411C274.631 168.967 275.142 168.426 275.56 167.787C275.986 167.139 276.28 166.398 276.442 165.562L280.431 165.575C280.218 166.862 279.804 168.047 279.191 169.129C278.586 170.203 277.806 171.132 276.851 171.916C275.905 172.692 274.823 173.293 273.604 173.719C272.385 174.145 271.056 174.358 269.615 174.358C267.348 174.358 265.328 173.821 263.556 172.747C261.783 171.665 260.385 170.118 259.363 168.107C258.348 166.095 257.841 163.696 257.841 160.909C257.841 158.114 258.353 155.714 259.375 153.712C260.398 151.7 261.796 150.158 263.569 149.084C265.341 148.001 267.357 147.46 269.615 147.46C271.005 147.46 272.3 147.661 273.502 148.061C274.712 148.453 275.799 149.033 276.762 149.8C277.725 150.558 278.522 151.487 279.152 152.587C279.783 153.678 280.209 154.926 280.431 156.332ZM293.314 174.396C291.379 174.396 289.713 173.983 288.315 173.156C286.926 172.321 285.852 171.149 285.094 169.641C284.344 168.124 283.969 166.347 283.969 164.31C283.969 162.298 284.344 160.526 285.094 158.991C285.852 157.457 286.909 156.26 288.264 155.399C289.628 154.538 291.222 154.108 293.045 154.108C294.153 154.108 295.227 154.291 296.267 154.658C297.307 155.024 298.24 155.599 299.067 156.384C299.893 157.168 300.545 158.186 301.023 159.439C301.5 160.683 301.739 162.196 301.739 163.977V165.332H286.129V162.469H297.993C297.993 161.463 297.788 160.572 297.379 159.797C296.97 159.013 296.395 158.395 295.653 157.943C294.92 157.491 294.06 157.266 293.071 157.266C291.997 157.266 291.06 157.53 290.259 158.058C289.466 158.578 288.852 159.26 288.418 160.104C287.991 160.939 287.778 161.847 287.778 162.827V165.064C287.778 166.376 288.009 167.493 288.469 168.413C288.938 169.334 289.589 170.037 290.425 170.523C291.26 171 292.236 171.239 293.352 171.239C294.077 171.239 294.737 171.136 295.334 170.932C295.93 170.719 296.446 170.403 296.881 169.986C297.315 169.568 297.648 169.053 297.878 168.439L301.496 169.091C301.206 170.156 300.686 171.089 299.936 171.891C299.195 172.683 298.261 173.301 297.136 173.744C296.02 174.179 294.746 174.396 293.314 174.396ZM313.331 174.384C311.745 174.384 310.331 173.979 309.086 173.169C307.85 172.351 306.879 171.187 306.172 169.679C305.473 168.162 305.123 166.342 305.123 164.22C305.123 162.098 305.477 160.283 306.184 158.774C306.9 157.266 307.88 156.111 309.125 155.31C310.369 154.509 311.779 154.108 313.356 154.108C314.575 154.108 315.555 154.312 316.297 154.722C317.047 155.122 317.626 155.591 318.035 156.128C318.453 156.665 318.777 157.138 319.007 157.547H319.237V147.818H323.059V174H319.326V170.945H319.007C318.777 171.362 318.444 171.839 318.01 172.376C317.583 172.913 316.995 173.382 316.245 173.783C315.495 174.183 314.524 174.384 313.331 174.384ZM314.174 171.124C315.274 171.124 316.203 170.834 316.961 170.254C317.728 169.666 318.308 168.852 318.7 167.812C319.1 166.773 319.301 165.562 319.301 164.182C319.301 162.818 319.105 161.625 318.713 160.602C318.321 159.58 317.745 158.783 316.987 158.212C316.228 157.641 315.291 157.355 314.174 157.355C313.024 157.355 312.065 157.653 311.298 158.25C310.531 158.847 309.951 159.661 309.559 160.692C309.176 161.723 308.984 162.886 308.984 164.182C308.984 165.494 309.18 166.675 309.572 167.723C309.964 168.771 310.544 169.602 311.311 170.216C312.086 170.821 313.041 171.124 314.174 171.124ZM334.229 174.435C332.985 174.435 331.86 174.205 330.854 173.744C329.849 173.276 329.052 172.598 328.464 171.712C327.884 170.825 327.594 169.739 327.594 168.452C327.594 167.344 327.808 166.432 328.234 165.716C328.66 165 329.235 164.433 329.96 164.016C330.684 163.598 331.494 163.283 332.388 163.07C333.283 162.857 334.195 162.695 335.124 162.584C336.3 162.447 337.255 162.337 337.988 162.251C338.721 162.158 339.254 162.009 339.586 161.804C339.918 161.599 340.085 161.267 340.085 160.807V160.717C340.085 159.601 339.769 158.736 339.138 158.122C338.516 157.509 337.587 157.202 336.352 157.202C335.065 157.202 334.05 157.487 333.309 158.058C332.576 158.621 332.069 159.247 331.788 159.938L328.195 159.119C328.621 157.926 329.244 156.963 330.062 156.23C330.888 155.489 331.839 154.952 332.913 154.619C333.987 154.278 335.116 154.108 336.3 154.108C337.085 154.108 337.915 154.202 338.793 154.389C339.68 154.568 340.506 154.901 341.273 155.386C342.049 155.872 342.684 156.567 343.178 157.47C343.673 158.365 343.92 159.528 343.92 160.96V174H340.187V171.315H340.033C339.786 171.81 339.415 172.295 338.921 172.773C338.427 173.25 337.792 173.646 337.016 173.962C336.241 174.277 335.312 174.435 334.229 174.435ZM335.06 171.366C336.117 171.366 337.021 171.158 337.771 170.74C338.529 170.322 339.104 169.777 339.496 169.104C339.897 168.422 340.097 167.693 340.097 166.918V164.386C339.961 164.523 339.697 164.651 339.305 164.77C338.921 164.881 338.482 164.979 337.988 165.064C337.494 165.141 337.012 165.213 336.543 165.281C336.075 165.341 335.683 165.392 335.367 165.435C334.626 165.528 333.948 165.686 333.335 165.908C332.729 166.129 332.244 166.449 331.877 166.866C331.519 167.276 331.34 167.821 331.34 168.503C331.34 169.449 331.69 170.165 332.388 170.651C333.087 171.128 333.978 171.366 335.06 171.366ZM349.011 174V154.364H352.706V157.483H352.91C353.268 156.426 353.899 155.595 354.802 154.99C355.714 154.376 356.745 154.07 357.896 154.07C358.135 154.07 358.416 154.078 358.74 154.095C359.072 154.112 359.332 154.134 359.52 154.159V157.815C359.366 157.773 359.093 157.726 358.701 157.675C358.309 157.615 357.917 157.585 357.525 157.585C356.622 157.585 355.816 157.777 355.109 158.161C354.41 158.536 353.856 159.06 353.447 159.733C353.038 160.398 352.833 161.156 352.833 162.009V174H349.011ZM381.7 154.364V157.432H370.603V154.364H381.7ZM373.646 174V152.088C373.646 150.861 373.914 149.842 374.451 149.033C374.988 148.214 375.7 147.605 376.586 147.205C377.473 146.795 378.436 146.591 379.475 146.591C380.243 146.591 380.899 146.655 381.444 146.783C381.99 146.902 382.395 147.013 382.659 147.115L381.764 150.209C381.585 150.158 381.355 150.098 381.074 150.03C380.792 149.953 380.451 149.915 380.051 149.915C379.122 149.915 378.457 150.145 378.056 150.605C377.664 151.065 377.468 151.73 377.468 152.599V174H373.646ZM393.142 174.396C391.301 174.396 389.694 173.974 388.322 173.131C386.95 172.287 385.885 171.107 385.126 169.589C384.368 168.072 383.988 166.3 383.988 164.271C383.988 162.234 384.368 160.453 385.126 158.928C385.885 157.402 386.95 156.217 388.322 155.374C389.694 154.53 391.301 154.108 393.142 154.108C394.983 154.108 396.589 154.53 397.961 155.374C399.333 156.217 400.399 157.402 401.157 158.928C401.916 160.453 402.295 162.234 402.295 164.271C402.295 166.3 401.916 168.072 401.157 169.589C400.399 171.107 399.333 172.287 397.961 173.131C396.589 173.974 394.983 174.396 393.142 174.396ZM393.154 171.188C394.348 171.188 395.336 170.872 396.12 170.241C396.904 169.611 397.484 168.771 397.859 167.723C398.243 166.675 398.434 165.52 398.434 164.259C398.434 163.006 398.243 161.855 397.859 160.807C397.484 159.75 396.904 158.902 396.12 158.263C395.336 157.624 394.348 157.304 393.154 157.304C391.953 157.304 390.956 157.624 390.163 158.263C389.379 158.902 388.795 159.75 388.412 160.807C388.037 161.855 387.849 163.006 387.849 164.259C387.849 165.52 388.037 166.675 388.412 167.723C388.795 168.771 389.379 169.611 390.163 170.241C390.956 170.872 391.953 171.188 393.154 171.188ZM406.562 174V154.364H410.256V157.483H410.461C410.819 156.426 411.45 155.595 412.353 154.99C413.265 154.376 414.296 154.07 415.447 154.07C415.685 154.07 415.967 154.078 416.29 154.095C416.623 154.112 416.883 154.134 417.07 154.159V157.815C416.917 157.773 416.644 157.726 416.252 157.675C415.86 157.615 415.468 157.585 415.076 157.585C414.173 157.585 413.367 157.777 412.66 158.161C411.961 158.536 411.407 159.06 410.998 159.733C410.589 160.398 410.384 161.156 410.384 162.009V174H406.562ZM432.424 174.243C431.725 174.243 431.124 173.996 430.621 173.501C430.119 172.999 429.867 172.393 429.867 171.686C429.867 170.987 430.119 170.391 430.621 169.896C431.124 169.393 431.725 169.142 432.424 169.142C433.123 169.142 433.724 169.393 434.227 169.896C434.729 170.391 434.981 170.987 434.981 171.686C434.981 172.155 434.862 172.585 434.623 172.977C434.393 173.361 434.086 173.668 433.702 173.898C433.319 174.128 432.893 174.243 432.424 174.243ZM461.54 147.818V174H457.909L444.601 154.798H444.358V174H440.408V147.818H444.064L457.385 167.045H457.628V147.818H461.54ZM467.302 174V147.818H483.717V151.219H471.252V159.196H482.86V162.584H471.252V170.599H483.87V174H467.302ZM487.702 151.219V147.818H507.965V151.219H499.796V174H495.859V151.219H487.702Z" fill="#FCFCFC"/>
<g clip-path="url(#clip4_3030_9144)">
<path d="M1040.13 46.1648C1038.98 43.5466 1036.75 44.9284 1035.4 46.7466L1033.49 50.0557L1046.18 72.0011H1055L1040.13 46.1648Z" fill="url(#paint0_linear_3030_9144)"/>
<path d="M1024.13 42.8177C1022 40.2359 1017.87 39.2905 1014.78 40.7814C1013.29 41.4723 1012.05 42.545 1011.18 44.0359C1011.18 44.0541 995 71.9996 995 71.9996H1004.05L1018.09 48.0177L1019.25 45.9995C1019.47 45.6359 1021.93 41.5086 1024.13 42.8177Z" fill="url(#paint1_linear_3030_9144)"/>
<path d="M1013.84 67.4736C1014.33 68.2554 1018.11 75.1282 1018.67 75.6009C1020.96 76.6009 1022.53 72.7463 1023.49 71.2373L1017.64 61.0918L1013.84 67.4736Z" fill="url(#paint2_linear_3030_9144)"/>
<path d="M1031.96 61.0918L1025.33 72.6009C1025.33 72.6009 1022.47 78.6918 1019.87 77.5463C1021.31 79.1645 1023.44 80.0736 1025.6 80.0009C1028.09 79.8918 1030.38 78.5463 1031.65 76.3463L1036.27 68.3282C1036.22 68.2373 1032.02 61.1645 1031.96 61.0918Z" fill="url(#paint3_linear_3030_9144)"/>
<path d="M1037.8 42.6002C1035.47 39.8911 1031.24 39.182 1028.18 41.0365C1025.29 42.4911 1022.4 49.5456 1020.62 52.1275C1020.65 52.2002 1025.04 59.7638 1025.07 59.8365C1026.71 57.0002 1030.45 50.5093 1032.05 47.7456C1033.16 45.9275 1035.07 41.2911 1037.8 42.6002Z" fill="url(#paint4_linear_3030_9144)"/>
<path d="M1024.76 44.8543C1023.15 47.4361 1021.67 50.5997 1020.62 52.127L1019.38 49.9997C1020.16 48.5452 1022.62 44.0361 1024.76 44.8543Z" fill="url(#paint5_linear_3030_9144)"/>
<path d="M1085.45 54.3095C1084.31 54.2913 1083.18 54.5459 1082.16 55.055C1081.15 55.5641 1080.25 56.3277 1079.6 57.255C1078.96 56.3277 1078.09 55.5822 1077.09 55.0731C1076.09 54.564 1074.96 54.3095 1073.84 54.3277C1069.35 54.3277 1066.29 57.9459 1066.29 63.3095V71.9822H1069.75V63.3095C1069.75 59.8186 1071.29 57.7459 1073.87 57.7459C1076.45 57.7459 1077.93 59.8913 1077.93 63.3095V71.9822H1081.2V63.3095C1081.2 59.8186 1082.75 57.7459 1085.35 57.7459C1087.95 57.7459 1089.38 59.8913 1089.38 63.3095V71.9822H1092.84V63.3095C1092.85 57.9277 1089.89 54.3095 1085.45 54.3095Z" fill="white"/>
<path d="M1103.62 54.0195C1098.64 54.0195 1095 57.8014 1095 63.0014C1095 68.2014 1098.62 71.9832 1103.62 71.9832C1108.62 71.9832 1112.24 68.2014 1112.24 63.0014C1112.24 57.8014 1108.58 54.0195 1103.62 54.0195ZM1103.62 68.565C1100.56 68.565 1098.44 66.2923 1098.44 63.0014C1098.44 59.7104 1100.51 57.4377 1103.62 57.4377C1106.71 57.4377 1108.76 59.6741 1108.76 63.0014C1108.76 66.3286 1106.64 68.565 1103.62 68.565Z" fill="white"/>
<path d="M1122.4 54.3105C1117.87 54.3105 1114.46 58.1651 1114.46 63.2924V71.9651H1117.91V63.2924C1117.91 60.0742 1119.76 57.7287 1122.42 57.7287C1125.07 57.7287 1126.82 60.0742 1126.82 63.2924V71.9651H1130.27V63.2924C1130.31 58.1833 1126.91 54.3105 1122.4 54.3105Z" fill="white"/>
<path d="M1141 54.0195C1136.02 54.0195 1132.38 57.8014 1132.38 63.0014C1132.38 68.2014 1136 72.0014 1141 72.0014C1146 72.0014 1149.56 68.2195 1149.56 63.0195C1149.56 57.8195 1145.96 54.0195 1141 54.0195ZM1141 68.565C1137.95 68.565 1135.82 66.2923 1135.82 63.0014C1135.82 59.7104 1137.91 57.4377 1141 57.4377C1144.09 57.4377 1146.15 59.6741 1146.15 63.0014C1146.15 66.3286 1144.04 68.565 1141 68.565Z" fill="white"/>
<path d="M1160.51 68.5273C1159.8 68.5273 1159.09 68.4 1158.44 68.1091C1157.78 67.8364 1157.18 67.4182 1156.69 66.9091C1156.2 66.4 1155.82 65.7819 1155.56 65.1091C1155.31 64.4364 1155.22 63.7273 1155.26 63.0182C1155.22 62.3091 1155.31 61.6 1155.56 60.9273C1155.82 60.2546 1156.18 59.6364 1156.69 59.1273C1157.18 58.6182 1157.78 58.2 1158.44 57.9273C1159.09 57.6546 1159.8 57.5091 1160.51 57.5091C1161.55 57.4364 1162.58 57.7091 1163.44 58.2909C1164.29 58.8728 1164.95 59.7273 1165.26 60.7091H1168.8C1168.46 58.8 1167.42 57.0728 1165.89 55.8728C1164.36 54.6728 1162.46 54.0546 1160.51 54.1455C1159.35 54.1273 1158.2 54.3455 1157.11 54.8C1156.04 55.2364 1155.06 55.9091 1154.26 56.7455C1153.46 57.5819 1152.82 58.5637 1152.4 59.6546C1151.98 60.7455 1151.8 61.8909 1151.86 63.0546C1151.82 64.2182 1152 65.3637 1152.42 66.4546C1152.84 67.5273 1153.46 68.5273 1154.27 69.3455C1155.07 70.1819 1156.06 70.8364 1157.13 71.291C1158.2 71.7455 1159.35 71.9637 1160.51 71.9637C1162.51 72.0364 1164.46 71.3819 1165.98 70.1091C1167.53 68.8364 1168.55 67.0546 1168.86 65.091H1165.35C1165.06 66.1273 1164.42 67.0364 1163.55 67.6728C1162.66 68.2728 1161.6 68.5819 1160.51 68.5273Z" fill="white"/>
<path d="M1174.45 48.3457H1171.18V71.8003H1174.45V48.3457Z" fill="white"/>
<path d="M1185.33 54.0195C1180.35 54.0195 1176.71 57.8014 1176.71 63.0014C1176.71 68.2014 1180.33 71.9832 1185.33 71.9832C1190.33 71.9832 1193.89 68.2014 1193.89 63.0014C1193.89 57.8014 1190.29 54.0195 1185.33 54.0195ZM1185.33 68.565C1182.27 68.565 1180.15 66.2923 1180.15 63.0014C1180.15 59.7104 1182.22 57.4377 1185.33 57.4377C1188.42 57.4377 1190.53 59.6923 1190.53 63.0014C1190.53 66.3104 1188.36 68.565 1185.33 68.565Z" fill="white"/>
<path d="M1208.64 63.0184C1208.64 66.2366 1206.69 68.5821 1204.15 68.5821C1201.6 68.5821 1199.55 66.2548 1199.55 63.0184V54.3457H1196.09V63.0184C1196.09 68.1275 1199.53 72.0003 1204.07 72.0003C1208.64 72.0003 1211.91 68.1275 1211.91 63.0184V54.3457H1208.64V63.0184Z" fill="white"/>
<path d="M1227.91 47.9824V55.9642C1226.42 54.637 1224.49 53.8915 1222.47 53.9097C1217.65 53.9097 1214.04 57.7642 1214.04 62.8915C1214.04 68.0188 1217.67 71.8733 1222.67 71.8733C1227.67 71.8733 1231.36 68.0915 1231.36 62.8915V47.9824H1227.91ZM1222.65 68.5642C1219.13 68.5642 1217.51 65.6915 1217.51 63.0006C1217.45 62.2915 1217.55 61.5824 1217.78 60.9097C1218.02 60.237 1218.38 59.6188 1218.87 59.0915C1219.36 58.5642 1219.95 58.1461 1220.6 57.8733C1221.25 57.5824 1221.96 57.437 1222.67 57.437C1223.38 57.437 1224.09 57.5824 1224.75 57.8733C1225.4 58.1642 1225.98 58.5824 1226.47 59.0915C1226.96 59.6188 1227.33 60.237 1227.56 60.9097C1227.8 61.5824 1227.89 62.2915 1227.84 63.0006C1227.84 65.7642 1226.24 68.5642 1222.65 68.5642Z" fill="white"/>
</g>
</g>
<defs>
<filter id="filter0_f_3030_9144" x="-88.7158" y="-375.049" width="1589.68" height="975.59" filterUnits="userSpaceOnUse" color-interpolation-filters="sRGB">
<feFlood flood-opacity="0" result="BackgroundImageFix"/>
<feBlend mode="normal" in="SourceGraphic" in2="BackgroundImageFix" result="shape"/>
<feGaussianBlur stdDeviation="150" result="effect1_foregroundBlur_3030_9144"/>
</filter>
<filter id="filter1_f_3030_9144" x="608" y="-57" width="1238" height="1128" filterUnits="userSpaceOnUse" color-interpolation-filters="sRGB">
<feFlood flood-opacity="0" result="BackgroundImageFix"/>
<feBlend mode="normal" in="SourceGraphic" in2="BackgroundImageFix" result="shape"/>
<feGaussianBlur stdDeviation="110" result="effect1_foregroundBlur_3030_9144"/>
</filter>
<filter id="filter2_f_3030_9144" x="-800" y="-800" width="1234" height="1234" filterUnits="userSpaceOnUse" color-interpolation-filters="sRGB">
<feFlood flood-opacity="0" result="BackgroundImageFix"/>
<feBlend mode="normal" in="SourceGraphic" in2="BackgroundImageFix" result="shape"/>
<feGaussianBlur stdDeviation="125" result="effect1_foregroundBlur_3030_9144"/>
</filter>
<linearGradient id="paint0_linear_3030_9144" x1="1023.23" y1="59.6703" x2="1071.37" y2="56.9658" gradientUnits="userSpaceOnUse">
<stop stop-color="#0586FD"/>
<stop offset="0.88" stop-color="#111FFF"/>
</linearGradient>
<linearGradient id="paint1_linear_3030_9144" x1="990.031" y1="84.277" x2="1042.16" y2="7.16322" gradientUnits="userSpaceOnUse">
<stop stop-color="#0586FD"/>
<stop offset="0.88" stop-color="#111FFF"/>
</linearGradient>
<linearGradient id="paint2_linear_3030_9144" x1="992.557" y1="90.2196" x2="1061.97" y2="32.7367" gradientUnits="userSpaceOnUse">
<stop stop-color="#0586FD"/>
<stop offset="0.88" stop-color="#111FFF"/>
</linearGradient>
<linearGradient id="paint3_linear_3030_9144" x1="1006.62" y1="91.753" x2="1058.09" y2="45.1602" gradientUnits="userSpaceOnUse">
<stop stop-color="#0586FD"/>
<stop offset="0.88" stop-color="#111FFF"/>
</linearGradient>
<linearGradient id="paint4_linear_3030_9144" x1="1021.11" y1="63.3363" x2="1040.6" y2="24.9083" gradientUnits="userSpaceOnUse">
<stop stop-color="#0586FD"/>
<stop offset="0.88" stop-color="#111FFF"/>
</linearGradient>
<linearGradient id="paint5_linear_3030_9144" x1="965.111" y1="89.4959" x2="1058.67" y2="22.0912" gradientUnits="userSpaceOnUse">
<stop stop-color="#0586FD"/>
<stop offset="0.88" stop-color="#111FFF"/>
</linearGradient>
<clipPath id="clip0_3030_9144">
<path d="M0 20C0 8.9543 8.95431 0 20 0H1260C1271.05 0 1280 8.95431 1280 20V205C1280 216.046 1271.05 225 1260 225H20C8.95431 225 0 216.046 0 205V20Z" fill="white"/>
</clipPath>
<clipPath id="clip1_3030_9144">
<path d="M48 57C48 50.3726 53.3726 45 60 45H116C122.627 45 128 50.3726 128 57V113C128 119.627 122.627 125 116 125H60C53.3726 125 48 119.627 48 113V57Z" fill="white"/>
</clipPath>
<clipPath id="clip2_3030_9144">
<rect width="80" height="80" fill="white" transform="translate(48 45)"/>
</clipPath>
<clipPath id="clip3_3030_9144">
<path d="M48 85C48 62.9086 65.9086 45 88 45V45C110.091 45 128 62.9086 128 85V85C128 107.091 110.091 125 88 125V125C65.9086 125 48 107.091 48 85V85Z" fill="white"/>
</clipPath>
<clipPath id="clip4_3030_9144">
<rect width="236.364" height="40" fill="white" transform="translate(995 40)"/>
</clipPath>
</defs>
</svg>
